<?xml version="1.0" encoding="UTF-8"?>
<svg version="1.1" xmlns="http://www.w3.org/2000/svg" width="1920" height="177">
<path d="M0 0 C633.6 0 1267.2 0 1920 0 C1920 54.45 1920 108.9 1920 165 C1913.61489437 163.72297887 1907.36954787 162.39201967 1901.08984375 160.7421875 C1899.31795105 160.28454099 1897.54580075 159.82789108 1895.7734375 159.37207031 C1894.35949707 159.00837341 1894.35949707 159.00837341 1892.91699219 158.6373291 C1813.83440886 138.40335938 1733.30743203 122.63501915 1641 107 C1639.74030396 106.78879517 1638.48060791 106.57759033 1637.18273926 106.35998535 C1593.09278915 98.98947293 1548.85120077 92.57683987 1504.3125 88.625 C1503.41390259 88.5451889 1502.51530518 88.46537781 1501.58947754 88.38314819 C1495.72974605 87.87082603 1489.86766752 87.41137358 1484 87 C1482.87853073 86.91998245 1482.87853073 86.91998245 1481.73440552 86.83834839 C1464.45349499 85.65662884 1447.12458139 85.79936718 1429.8125 85.8125 C1428.63064369 85.81290031 1428.63064369 85.81290031 1427.4249115 85.81330872 C1403.09304653 85.82364661 1378.8437553 86.09274242 1354.56335449 87.81964111 C1351.83596361 88.01154168 1349.10802519 88.19362212 1346.37988281 88.37451172 C1260.76310518 94.11030447 1175.68208926 106.54030242 977.77964783 144.7993145 C922.94189422 156.48484435 922.94189422 156.48484435 906 159.0625 C905.25049072 159.17873718 904.50098145 159.29497437 903.72875977 159.41473389 C815.73860126 173.00178095 726.28252415 177.4367113 637.33789062 177.26074219 C631.53023667 177.24933566 625.72276601 177.25615794 619.91511822 177.26762676 C522.12523689 177.43065721 421.87483219 173.19984759 326.5105896 150.03219604 C325.29878525 149.7378215 325.29878525 149.7378215 324.0625 149.4375 C323.26099518 149.24261993 322.45949036 149.04773987 321.63369751 148.84695435 C298.39669832 143.22432856 274.87515048 139.53263507 251 138 C249.74823975 137.91540527 249.74823975 137.91540527 248.47119141 137.82910156 C169.26493036 132.69353351 87.02245011 143.33484879 10.44773865 163.44473267 C9.66133499 163.64779022 8.87493134 163.85084778 8.06469727 164.06005859 C7.02962791 164.33249893 7.02962791 164.33249893 5.97364807 164.61044312 C4 165 4 165 0 165 C0 110.55 0 56.1 0 0 Z " fill="#0C0D10" transform="translate(0,0)"/>
</svg>
