<?xml version="1.0" encoding="UTF-8"?>
<svg version="1.1" xmlns="http://www.w3.org/2000/svg" width="1920" height="193">
<path d="M0 0 C6.03028998 3.28924908 11.96072702 6.54300916 17.85595703 10.03149414 C49.42979707 28.57460497 83.42266405 42.18409136 118 54 C119.10327637 54.37866211 120.20655273 54.75732422 121.34326172 55.14746094 C160.24219864 68.38354601 200.41075289 77.43284037 240.8125 84.6875 C241.53628845 84.82030365 242.2600769 84.9531073 243.00579834 85.0899353 C275.94212746 91.08669194 309.43070642 93.94122502 342.74356079 96.90808105 C354.4988036 97.95541412 366.25152364 99.03048165 378.00390625 100.109375 C379.240464 100.22277473 380.47702175 100.33617447 381.75105095 100.45301056 C401.9991241 102.31375184 422.23410851 104.28900431 442.46484375 106.328125 C443.16433105 106.39862202 443.86381834 106.46911904 444.58450222 106.54175234 C452.34847046 107.32450087 460.11217804 108.10981779 467.87579346 108.89605713 C562.45611953 118.53366936 562.45611953 118.53366936 657.30511475 124.86611938 C659.07150712 124.95387292 660.8376824 125.04613861 662.60357666 125.1434021 C683.92273881 126.31367876 705.26969491 126.18737522 726.61376953 126.18530273 C730.92956776 126.1852219 735.24525888 126.19210993 739.56103516 126.20581055 C767.10731203 126.29179046 794.5108578 125.83384019 822 124 C823.15218018 123.92429779 824.30436035 123.84859558 825.49145508 123.77059937 C847.55872299 122.28382932 869.57285938 120.08695983 891.515625 117.328125 C892.53263174 117.20094589 893.54963848 117.07376678 894.59746361 116.94273376 C917.03578264 114.1211689 939.35176667 110.63017847 961.67250443 107.00808716 C967.09811357 106.13016161 972.5255011 105.26338558 977.95288086 104.39648438 C979.05660317 104.22016731 980.16032549 104.04385025 981.29749393 103.86219025 C983.53854662 103.50422707 985.77960659 103.14630942 988.02067375 102.78843689 C991.38665952 102.25063359 994.75249788 101.71191626 998.11830139 101.17297363 C1087.24128857 86.90831117 1176.32329639 73.17338525 1266.421875 66.76171875 C1267.29999344 66.69846909 1268.17811188 66.63521942 1269.08283997 66.5700531 C1285.21181548 65.45522766 1301.30620671 64.83286085 1317.47265625 64.796875 C1318.80438779 64.79263393 1318.80438779 64.79263393 1320.16302299 64.78830719 C1324.88106434 64.77346143 1329.59907638 64.76414566 1334.31713867 64.75976562 C1338.10630169 64.75542873 1341.89523085 64.74170321 1345.68432617 64.71875 C1366.52423338 64.59527785 1387.24520402 64.88970897 1408.0390625 66.375 C1408.90497072 66.43668114 1409.77087894 66.49836227 1410.66302681 66.56191254 C1463.06052447 70.38289636 1514.82059493 79.78117663 1564.85592651 95.88766479 C1585.83888913 102.63455921 1607.16641555 107.06439201 1629 110 C1629.85819336 110.11859375 1630.71638672 110.2371875 1631.60058594 110.359375 C1722.01984518 122.29684891 1817.18255701 92.65024813 1913.94433594 30.58691406 C1918.90057018 27 1918.90057018 27 1920 27 C1920 81.78 1920 136.56 1920 193 C1286.4 193 652.8 193 0 193 C0 129.31 0 65.62 0 0 Z " fill="#0C0D10" transform="translate(0,0)"/>
</svg>
