<svg width="101" height="100" viewBox="0 0 101 100" fill="none" xmlns="http://www.w3.org/2000/svg">
<path d="M80.8328 0.914946C80.2468 0.329106 79.4521 0 78.6235 0C77.7949 0 77.0002 0.329106 76.4142 0.914946L66.1209 11.2086L89.2887 34.377L99.582 24.0897C99.873 23.7994 100.104 23.4545 100.261 23.0749C100.419 22.6952 100.5 22.2882 100.5 21.8772C100.5 21.4661 100.419 21.0591 100.261 20.6795C100.104 20.2998 99.873 19.955 99.582 19.6647L80.8328 0.914946ZM84.8701 38.7957L61.7024 15.6273L21.0791 56.2518H22.3728C23.2016 56.2518 23.9964 56.581 24.5824 57.167C25.1685 57.7531 25.4977 58.5479 25.4977 59.3767V62.5017H28.6226C29.4513 62.5017 30.2461 62.8309 30.8322 63.417C31.4182 64.003 31.7474 64.7978 31.7474 65.6266V68.7516H34.8723C35.7011 68.7516 36.4959 69.0808 37.0819 69.6669C37.6679 70.2529 37.9972 71.0478 37.9972 71.8766V75.0015H41.122C41.9508 75.0015 42.7456 75.3307 43.3316 75.9168C43.9176 76.5028 44.2469 77.2977 44.2469 78.1265V79.4202L84.8701 38.7957ZM38.1971 85.4701C38.0656 85.1205 37.9979 84.75 37.9972 84.3764V81.2514H34.8723C34.0435 81.2514 33.2487 80.9222 32.6627 80.3362C32.0766 79.7501 31.7474 78.9553 31.7474 78.1265V75.0015H28.6226C27.7938 75.0015 26.999 74.6723 26.4129 74.0862C25.8269 73.5002 25.4977 72.7054 25.4977 71.8766V68.7516H22.3728C21.5441 68.7516 20.7492 68.4224 20.1632 67.8363C19.5772 67.2503 19.248 66.4554 19.248 65.6266V62.5017H16.1231C15.7495 62.5009 15.3791 62.4332 15.0294 62.3017L13.9107 63.4142C13.6129 63.7141 13.379 64.0713 13.2232 64.4641L0.723778 95.7138C0.496471 96.2817 0.440827 96.9038 0.563743 97.503C0.686659 98.1022 0.982731 98.6522 1.41525 99.0847C1.84777 99.5172 2.39773 99.8133 2.99693 99.9363C3.59613 100.059 4.21823 100.004 4.7861 99.7762L36.0347 87.2764C36.4276 87.1206 36.7848 86.8867 37.0847 86.5889L38.1971 85.4701Z" fill="#C49C66"/>
</svg>
