<svg width="100" height="100" viewBox="0 0 100 100" fill="none" xmlns="http://www.w3.org/2000/svg">
<path d="M28.374 0.915291C28.9601 0.32924 29.7549 0 30.5837 0H69.4163C70.2451 0 71.0399 0.32924 71.626 0.915291L99.0847 28.374C99.6708 28.9601 100 29.7549 100 30.5837V69.4163C100 70.2451 99.6708 71.0399 99.0847 71.626L71.626 99.0847C71.0399 99.6708 70.2451 100 69.4163 100H30.5837C29.7549 100 28.9601 99.6708 28.374 99.0847L0.915291 71.626C0.32924 71.0399 0 70.2451 0 69.4163V30.5837C0 29.7549 0.32924 28.9601 0.915291 28.374L28.374 0.915291ZM31.8782 6.25L6.25 31.8782V68.1218L31.8782 93.75H68.1218L93.75 68.1218V31.8782L68.1218 6.25H31.8782Z" fill="#C49C66"/>
<path d="M43.7596 68.75C43.7596 65.2982 46.5579 62.5 50.0096 62.5C53.4614 62.5 56.2596 65.2982 56.2596 68.75C56.2596 72.2018 53.4614 75 50.0096 75C46.5579 75 43.7596 72.2018 43.7596 68.75Z" fill="#C49C66"/>
<path d="M44.3719 31.219C44.0389 27.8893 46.6537 25 50 25C53.3463 25 55.9611 27.8893 55.6281 31.219L53.436 53.1405C53.2594 54.9057 51.774 56.25 50 56.25C48.226 56.25 46.7406 54.9057 46.5641 53.1405L44.3719 31.219Z" fill="#C49C66"/>
</svg>
