<svg width="88" height="97" viewBox="0 0 88 97" fill="none" xmlns="http://www.w3.org/2000/svg">
<path d="M21.2188 0.262618C22.0111 0.0231158 22.8661 0.107748 23.5961 0.49794C24.3261 0.888133 24.8714 1.55201 25.1125 2.34387L26.9312 8.31887C32.0089 5.00985 37.9393 3.24877 44 3.25012C50.2938 3.25012 56.1625 5.11262 61.0687 8.31887L62.8812 2.34387C62.998 1.94848 63.1918 1.5801 63.4515 1.25995C63.7113 0.939799 64.0318 0.674203 64.3946 0.478464C64.7574 0.282724 65.1554 0.16071 65.5656 0.11945C65.9758 0.0781903 66.3901 0.118501 66.7846 0.238059C67.1792 0.357617 67.5462 0.55406 67.8644 0.81607C68.1827 1.07808 68.446 1.40048 68.6392 1.7647C68.8323 2.12891 68.9515 2.52774 68.9898 2.93822C69.0281 3.34869 68.9849 3.76269 68.8625 4.15637L66.3 12.6064C72.0366 18.4498 75.2504 26.3115 75.25 34.5001H78.375C79.2038 34.5001 79.9987 34.1709 80.5847 33.5848C81.1708 32.9988 81.5 32.2039 81.5 31.3751V28.2501C81.5 27.4213 81.8292 26.6265 82.4153 26.0404C83.0013 25.4544 83.7962 25.1251 84.625 25.1251C85.4538 25.1251 86.2487 25.4544 86.8347 26.0404C87.4208 26.6265 87.75 27.4213 87.75 28.2501V31.3751C87.75 33.8615 86.7623 36.2461 85.0041 38.0042C83.246 39.7624 80.8614 40.7501 78.375 40.7501H75.25V47.0001H84.625C85.4538 47.0001 86.2487 47.3294 86.8347 47.9154C87.4208 48.5015 87.75 49.2963 87.75 50.1251C87.75 50.9539 87.4208 51.7488 86.8347 52.3348C86.2487 52.9209 85.4538 53.2501 84.625 53.2501H75.25V59.5001H78.375C80.8614 59.5001 83.246 60.4878 85.0041 62.246C86.7623 64.0041 87.75 66.3887 87.75 68.8751V72.0001C87.75 72.8289 87.4208 73.6238 86.8347 74.2098C86.2487 74.7959 85.4538 75.1251 84.625 75.1251C83.7962 75.1251 83.0013 74.7959 82.4153 74.2098C81.8292 73.6238 81.5 72.8289 81.5 72.0001V68.8751C81.5 68.0463 81.1708 67.2515 80.5847 66.6654C79.9987 66.0794 79.2038 65.7501 78.375 65.7501H75.25C75.25 74.0381 71.9576 81.9867 66.0971 87.8472C60.2366 93.7077 52.288 97.0001 44 97.0001C35.712 97.0001 27.7634 93.7077 21.9029 87.8472C16.0424 81.9867 12.75 74.0381 12.75 65.7501H9.625C8.7962 65.7501 8.00134 66.0794 7.41529 66.6654C6.82924 67.2515 6.5 68.0463 6.5 68.8751V72.0001C6.5 72.8289 6.17076 73.6238 5.58471 74.2098C4.99866 74.7959 4.2038 75.1251 3.375 75.1251C2.5462 75.1251 1.75134 74.7959 1.16529 74.2098C0.57924 73.6238 0.25 72.8289 0.25 72.0001V68.8751C0.25 66.3887 1.23772 64.0041 2.99587 62.246C4.75403 60.4878 7.1386 59.5001 9.625 59.5001H12.75V53.2501H3.375C2.5462 53.2501 1.75134 52.9209 1.16529 52.3348C0.57924 51.7488 0.25 50.9539 0.25 50.1251C0.25 49.2963 0.57924 48.5015 1.16529 47.9154C1.75134 47.3294 2.5462 47.0001 3.375 47.0001H12.75V40.7501H9.625C7.1386 40.7501 4.75403 39.7624 2.99587 38.0042C1.23772 36.2461 0.25 33.8615 0.25 31.3751V28.2501C0.25 27.4213 0.57924 26.6265 1.16529 26.0404C1.75134 25.4544 2.5462 25.1251 3.375 25.1251C4.2038 25.1251 4.99866 25.4544 5.58471 26.0404C6.17076 26.6265 6.5 27.4213 6.5 28.2501V31.3751C6.5 32.2039 6.82924 32.9988 7.41529 33.5848C8.00134 34.1709 8.7962 34.5001 9.625 34.5001H12.75C12.75 25.9751 16.1688 18.2439 21.7 12.6064L19.1375 4.15637C18.898 3.36404 18.9826 2.50905 19.3728 1.77905C19.763 1.04905 20.4269 0.503676 21.2188 0.262618ZM19 40.7501V65.7501C18.9979 71.8408 21.2193 77.7227 25.2472 82.2914C29.275 86.8601 34.8321 89.8013 40.875 90.5626V40.7501H19ZM47.125 40.7501V90.5626C53.1679 89.8013 58.725 86.8601 62.7528 82.2914C66.7807 77.7227 69.0021 71.8408 69 65.7501V40.7501H47.125ZM69 34.5001C69 30.9818 68.2573 27.5031 66.8206 24.2914C65.3839 21.0798 63.2854 18.2076 60.6625 15.8626C56.0858 11.755 50.1497 9.48835 44 9.50012C37.8481 9.4868 31.9096 11.7536 27.3313 15.8626C24.7094 18.2082 22.6122 21.0806 21.1765 24.2922C19.7409 27.5038 18.9992 30.9822 19 34.5001H69Z" fill="#C49C66"/>
</svg>
