<svg width="100" height="100" viewBox="0 0 100 100" fill="none" xmlns="http://www.w3.org/2000/svg">
<path d="M27.5391 9.375L25.3906 11.6211L11.6211 25.3906L9.375 27.5391L11.6211 29.7852L31.8359 50L16.8945 64.9414L16.2109 65.625L16.0156 66.6016L12.5977 83.7891L11.6211 88.3789L16.2109 87.4023L33.3984 83.9844L34.375 83.7891L35.0586 83.1055L50 68.1641L70.1172 88.2812L72.3633 90.5273L74.5117 88.2812L88.2812 74.5117L90.5273 72.3633L88.2812 70.1172L68.1641 50L83.5938 34.5703C88.627 29.537 88.627 21.4395 83.5938 16.4062C81.0771 13.8896 77.7958 12.5977 74.5117 12.5977C71.2277 12.5977 67.9463 13.8896 65.4297 16.4062L50 31.8359L29.7852 11.6211L27.5391 9.375ZM27.5391 18.2617L33.5938 24.4141L29.0039 29.0039L33.4961 33.4961L38.0859 28.9062L45.5078 36.3281L36.2305 45.6055L18.1641 27.5391L27.5391 18.2617ZM74.5117 18.6523C76.1386 18.6523 77.7877 19.3893 79.1992 20.8008C82.0222 23.6238 82.0222 27.2551 79.1992 30.0781L77.1484 32.1289L67.8711 22.8516L69.9219 20.8008C71.3334 19.3893 72.8848 18.6523 74.5117 18.6523ZM63.4766 27.2461L72.7539 36.5234L34.9609 74.3164C32.8955 70.3462 29.6536 67.1044 25.6836 65.0391L63.4766 27.2461ZM63.7695 54.3945L71.1914 61.8164L66.5039 66.5039L70.9961 70.9961L75.6836 66.3086L81.6406 72.2656L72.2656 81.6406L54.3945 63.7695L63.7695 54.3945ZM21.6797 70.0195C25.4294 71.5941 28.4045 74.5693 29.9805 78.3203L19.6289 80.3711L21.6797 70.0195Z" fill="#C49C66"/>
</svg>
