<svg width="100" height="100" viewBox="0 0 100 100" fill="none" xmlns="http://www.w3.org/2000/svg">
<g clip-path="url(#clip0_461_204)">
<path d="M44.1754 4.54342C45.694 -1.5187 54.2997 -1.5187 55.8246 4.54342L56.2684 6.33081C56.528 7.36953 57.0608 8.31986 57.8117 9.08318C58.5625 9.8465 59.5039 10.395 60.5382 10.6717C61.5725 10.9485 62.662 10.9434 63.6936 10.657C64.7253 10.3707 65.6616 9.81342 66.4052 9.04314L67.6864 7.72447C72.0299 3.231 79.4857 7.53698 77.767 13.5429L77.267 15.3177C76.9727 16.3467 76.959 17.4357 77.2273 18.4718C77.4956 19.5079 78.0362 20.4533 78.7929 21.2101C79.5497 21.9669 80.4952 22.5075 81.5313 22.7758C82.5673 23.0441 83.6563 23.0304 84.6853 22.736L86.454 22.2298C92.4536 20.5112 96.7658 27.967 92.2724 32.3104L90.9537 33.5916C90.1834 34.3353 89.6262 35.2715 89.3398 36.3032C89.0534 37.3349 89.0483 38.4244 89.3251 39.4587C89.6018 40.493 90.1503 41.4344 90.9136 42.1852C91.677 42.936 92.6273 43.4688 93.666 43.7285L95.4534 44.1722C101.516 45.6908 101.516 54.2966 95.4534 55.8215L93.666 56.2652C92.6273 56.5248 91.677 57.0577 90.9136 57.8085C90.1503 58.5593 89.6018 59.5007 89.3251 60.535C89.0483 61.5693 89.0534 62.6588 89.3398 63.6905C89.6262 64.7221 90.1834 65.6584 90.9537 66.402L92.2724 67.6832C96.7658 72.0267 92.4598 79.4825 86.454 77.7638L84.6791 77.2639C83.6501 76.9695 82.5611 76.9558 81.525 77.2241C80.4889 77.4924 79.5435 78.033 78.7867 78.7898C78.0299 79.5466 77.4893 80.492 77.221 81.5281C76.9527 82.5642 76.9665 83.6532 77.2608 84.6822L77.767 86.4508C79.4857 92.4504 72.0299 96.7626 67.6864 92.2692L66.4052 90.9505C65.6616 90.1802 64.7253 89.623 63.6936 89.3366C62.662 89.0502 61.5725 89.0452 60.5382 89.3219C59.5039 89.5987 58.5625 90.1472 57.8117 90.9105C57.0608 91.6738 56.528 92.6241 56.2684 93.6628L55.8246 95.4502C54.306 101.512 45.7003 101.512 44.1754 95.4502L43.7316 93.6628C43.472 92.6241 42.9392 91.6738 42.1884 90.9105C41.4375 90.1472 40.4961 89.5987 39.4618 89.3219C38.4275 89.0452 37.338 89.0502 36.3064 89.3366C35.2747 89.623 34.3384 90.1802 33.5948 90.9505L32.3136 92.2692C27.9701 96.7626 20.5143 92.4567 22.233 86.4508L22.733 84.6759C23.0267 83.6476 23.0403 82.5594 22.7722 81.524C22.5042 80.4887 21.9642 79.5438 21.2083 78.7872C20.4524 78.0307 19.5079 77.4899 18.4728 77.221C17.4377 76.9521 16.3495 76.9647 15.3209 77.2576L13.546 77.7638C7.5464 79.4825 3.23417 72.0267 7.72764 67.6832L9.04631 66.402C9.81659 65.6584 10.3738 64.7221 10.6602 63.6905C10.9466 62.6588 10.9517 61.5693 10.6749 60.535C10.3982 59.5007 9.84967 58.5593 9.08635 57.8085C8.32304 57.0577 7.37271 56.5248 6.33398 56.2652L4.54659 55.8215C-1.51553 54.3028 -1.51553 45.6971 4.54659 44.1722L6.33398 43.7285C7.37271 43.4688 8.32304 42.936 9.08635 42.1852C9.84967 41.4344 10.3982 40.493 10.6749 39.4587C10.9517 38.4244 10.9466 37.3349 10.6602 36.3032C10.3738 35.2715 9.81659 34.3353 9.04631 33.5916L7.72764 32.3104C3.23417 27.967 7.54015 20.5112 13.546 22.2298L15.3209 22.7298C16.3493 23.0236 17.4374 23.0371 18.4728 22.7691C19.5081 22.501 20.453 21.961 21.2096 21.2051C21.9661 20.4492 22.5069 19.5048 22.7758 18.4697C23.0448 17.4345 23.0321 16.3463 22.7392 15.3177L22.233 13.5429C20.5143 7.54323 27.9701 3.231 32.3136 7.72447L33.5948 9.04314C34.3384 9.81342 35.2747 10.3707 36.3064 10.657C37.338 10.9434 38.4275 10.9485 39.4618 10.6717C40.4961 10.395 41.4375 9.8465 42.1884 9.08318C42.9392 8.31986 43.472 7.36953 43.7316 6.33081L44.1754 4.54342ZM81.0793 53.1216H51.5624L33.851 76.7389C38.3625 79.4638 43.49 81.0028 48.7564 81.2126C54.0227 81.4224 59.2565 80.2963 63.9704 77.939C68.6843 75.5817 72.7252 72.07 75.7166 67.7307C78.7081 63.3914 80.5529 58.3658 81.0793 53.1216ZM81.0793 46.872C80.5529 41.6279 78.7081 36.6022 75.7166 32.263C72.7252 27.9237 68.6843 24.4119 63.9704 22.0546C59.2565 19.6974 54.0227 18.5712 48.7564 18.781C43.49 18.9909 38.3625 20.5299 33.851 23.2547L51.5624 46.8783L81.0793 46.872ZM28.8576 27.0108C25.6713 29.9313 23.1283 33.4835 21.3906 37.441C19.6529 41.3985 18.7585 45.6746 18.7645 49.9968C18.7645 59.09 22.6517 67.277 28.8576 72.9829L46.094 49.9968L28.8576 27.0108Z" fill="#C49C66"/>
</g>
<defs>
<clipPath id="clip0_461_204">
<rect width="100" height="100" fill="white"/>
</clipPath>
</defs>
</svg>
