<svg width="100" height="100" viewBox="0 0 100 100" fill="none" xmlns="http://www.w3.org/2000/svg">
<path d="M67.367 83.9108C66.8488 83.5955 66.3973 83.1728 66.0385 82.6606C65.8727 82.4244 65.7327 82.1746 65.6167 81.9164H6.73492V23.8793H86.6585V61.7755C88.3648 61.9296 89.7964 63.0502 90.3975 64.5848C90.9297 64.293 91.5229 64.1128 92.1463 64.0578C92.5681 64.0211 92.987 64.0473 93.3932 64.1275V9.42094C93.3932 6.32614 90.8759 3.80835 87.7813 3.80835H5.61235C2.5178 3.80835 0 6.32614 0 9.42094V83.0392C0 86.134 2.5178 88.6516 5.61235 88.6516H66.8555C66.3776 87.6838 66.2642 86.5912 66.5455 85.5401C66.7076 84.9355 66.9882 84.384 67.367 83.9108ZM80.4954 13.233C80.4954 12.0885 81.4231 11.1605 82.5676 11.1605H84.6399C85.7846 11.1605 86.7121 12.0883 86.7121 13.233V15.5817C86.7121 16.7262 85.7843 17.654 84.6399 17.654H82.5676C81.4229 17.654 80.4954 16.7262 80.4954 15.5817V13.233ZM70.8593 13.233C70.8593 12.0885 71.787 11.1605 72.9315 11.1605H75.004C76.1487 11.1605 77.0762 12.0883 77.0762 13.233V15.5817C77.0762 16.7262 76.1485 17.654 75.004 17.654H72.9315C71.787 17.654 70.8593 16.7262 70.8593 15.5817V13.233ZM61.2229 13.233C61.2229 12.0885 62.1509 11.1605 63.2952 11.1605H65.3674C66.5121 11.1605 67.4399 12.0883 67.4399 13.233V15.5817C67.4399 16.7262 66.5121 17.654 65.3674 17.654H63.2952C62.1509 17.654 61.2229 16.7262 61.2229 15.5817V13.233Z" fill="#C49C66"/>
<path d="M99.9859 79.9586L99.3631 76.4271C99.2791 75.9515 98.8259 75.6338 98.3499 75.7177L95.2094 76.2711C94.8324 75.3864 94.3509 74.5577 93.7794 73.7992L95.8307 71.3541C95.9797 71.1769 96.0524 70.9471 96.0324 70.7159C96.0119 70.4847 95.9004 70.2713 95.7228 70.122L92.9761 67.8168C92.7985 67.6678 92.5682 67.5954 92.3372 67.6156C92.106 67.6358 91.8926 67.7471 91.7436 67.9247L89.6942 70.368C88.8528 69.9393 87.9529 69.6088 87.0102 69.3907V66.2016C87.0102 65.7186 86.6184 65.3267 86.1355 65.3267H82.5492C82.0665 65.3267 81.6745 65.7186 81.6745 66.2016V69.3907C80.7313 69.6086 79.8323 69.9393 78.9905 70.368L76.9407 67.9249C76.6301 67.5549 76.0786 67.5068 75.7083 67.8171L72.9614 70.122C72.7838 70.2713 72.6726 70.4847 72.6521 70.7159C72.6321 70.9471 72.7045 71.1772 72.8535 71.3548L74.9051 73.7995C74.3345 74.5577 73.852 75.3869 73.4751 76.2713L70.3346 75.7177C69.8597 75.6341 69.4056 75.9515 69.3213 76.4271L68.6988 79.9586C68.6586 80.187 68.7107 80.4218 68.8434 80.612C68.977 80.8023 69.1791 80.9316 69.4077 80.9718L72.5506 81.5258C72.6018 82.4995 72.7714 83.4415 73.0443 84.3386L70.2819 85.9329C70.081 86.0484 69.9345 86.2399 69.8743 86.4637C69.8142 86.6878 69.8459 86.9264 69.9616 87.1274L71.7546 90.2329C71.8701 90.4339 72.0615 90.5803 72.2854 90.6403C72.3599 90.6603 72.4359 90.6701 72.5118 90.6701C72.664 90.6701 72.8147 90.6306 72.949 90.5529L75.7135 88.9567C76.3636 89.6533 77.0976 90.2705 77.8996 90.7925L76.808 93.7913C76.7289 94.0095 76.7392 94.25 76.8373 94.4603C76.9354 94.6705 77.1128 94.8332 77.3307 94.9122L80.6998 96.1384C80.7965 96.1736 80.898 96.1917 80.9992 96.1917C81.1254 96.1917 81.2523 96.1643 81.3692 96.1096C81.5795 96.0117 81.7417 95.8341 81.821 95.6159L82.9123 92.6171C83.3803 92.6738 83.8565 92.7031 84.3397 92.7031C84.8229 92.7031 85.2992 92.6733 85.7671 92.6171L86.8587 95.6159C86.9378 95.8341 87.1007 96.0117 87.3104 96.1096C87.4271 96.1641 87.5536 96.1917 87.6805 96.1917C87.7815 96.1917 87.8829 96.1741 87.9796 96.1384L91.3492 94.9122C91.5666 94.8332 91.7443 94.67 91.8421 94.4603C91.9403 94.25 91.9507 94.0095 91.8714 93.7913L90.7798 90.793C91.5811 90.271 92.3151 89.6533 92.9659 88.9572L95.7304 90.5534C95.8645 90.6306 96.0154 90.6706 96.1676 90.6706C96.2433 90.6706 96.32 90.6603 96.3941 90.6408C96.6182 90.5808 96.8091 90.4339 96.9249 90.2334L98.7178 87.1274C98.8335 86.9269 98.8652 86.6878 98.8052 86.4637C98.7449 86.2403 98.5985 86.0489 98.3975 85.9329L95.6356 84.3391C95.9085 83.4418 96.0776 82.4997 96.1288 81.5262L99.2717 80.9721C99.5003 80.9318 99.7032 80.8025 99.8361 80.6123C99.974 80.4218 100.026 80.187 99.9859 79.9586ZM84.3426 85.5705C81.6862 85.5705 79.5323 83.4165 79.5323 80.7599C79.5323 78.1033 81.6864 75.9496 84.3426 75.9496C86.9992 75.9496 89.1531 78.1033 89.1531 80.7599C89.1531 83.4165 86.9992 85.5705 84.3426 85.5705Z" fill="#C49C66"/>
<path d="M39.2202 56.0505C39.2202 54.9188 38.557 53.8794 37.5304 53.4026L28.1348 49.0372L37.5306 44.6712C38.557 44.194 39.2202 43.1548 39.2202 42.0236V41.9477C39.2202 40.9451 38.7156 40.0247 37.8712 39.4868C37.4039 39.1884 36.8598 39.0305 36.298 39.0305C35.8746 39.0305 35.4496 39.1236 35.0693 39.3003L20.0482 46.2855C19.0221 46.7627 18.3594 47.802 18.3594 48.9329V49.1417C18.3594 50.2712 19.0219 51.3097 20.0485 51.7893L35.0709 58.7752C35.4593 58.955 35.873 59.0462 36.3002 59.0462C36.8569 59.0462 37.3994 58.8881 37.8712 58.588C38.7161 58.0479 39.2204 57.1283 39.2204 56.1269L39.2202 56.0505Z" fill="#C49C66"/>
<path d="M54.0405 31.9129C53.4925 31.1628 52.6112 30.7151 51.6827 30.7151H51.6079C50.333 30.7151 49.2152 31.5307 48.8268 32.743L38.9299 63.4081C38.6482 64.2935 38.8068 65.2686 39.354 66.0185C39.902 66.7682 40.7833 67.2161 41.7118 67.2161H41.7868C43.0613 67.2161 44.1784 66.4002 44.5663 65.1881L54.462 34.5255C54.7463 33.6408 54.5887 32.6642 54.0405 31.9129Z" fill="#C49C66"/>
<path d="M73.3453 46.2853L58.324 39.3001C57.9449 39.1239 57.5206 39.0308 57.0972 39.0308C56.5356 39.0308 55.9913 39.1882 55.5243 39.4861C54.6784 40.025 54.1738 40.9451 54.1738 41.9477V42.0236C54.1738 43.1538 54.8366 44.1933 55.8639 44.6724L65.2592 49.0374L55.8636 53.4026C54.837 53.8794 54.1738 54.9188 54.1738 56.0505V56.1269C54.1738 57.1283 54.6784 58.0477 55.5238 58.5883C55.9939 58.8878 56.5368 59.0462 57.0943 59.0462C57.521 59.0462 57.9342 58.955 58.3252 58.7745L73.3472 51.7886C74.3729 51.3102 75.0351 50.2714 75.0351 49.1419V48.9331C75.0344 47.802 74.3717 46.7627 73.3453 46.2853Z" fill="#C49C66"/>
</svg>
